#N canvas 341 52 683 693 10;
#X obj 172 338 tgl 15 0 empty empty empty 17 7 0 10 -262144 -1 -1 0
1;
#X floatatom 260 337 5 0 0 0 - - -, f 5;
#X obj 94 55 sel 1;
#X obj 94 137 metro;
#X obj 184 81 expr (60 / $f1) * 1000;
#X obj 94 159 f;
#X obj 94 181 + 1;
#X floatatom 94 203 5 0 0 0 - - -, f 5;
#X obj 94 234 % 2;
#X obj 116 234 % 3;
#X obj 138 234 % 4;
#X obj 162 233 % 5;
#X obj 182 232 % 6;
#X obj 204 234 % 7;
#X obj 226 234 % 8;
#X obj 187 368 bng 15 250 50 0 empty empty /2 4 -8 1 10 -262144 -1
-1;
#X obj 202 368 bng 15 250 50 0 empty empty /3 4 -8 1 10 -262144 -1
-1;
#X obj 217 368 bng 15 250 50 0 empty empty /4 4 -8 1 10 -262144 -1
-1;
#X obj 232 368 bng 15 250 50 0 empty empty /5 4 -8 1 10 -262144 -1
-1;
#X obj 247 368 bng 15 250 50 0 empty empty /6 4 -8 1 10 -262144 -1
-1;
#X obj 262 368 bng 15 250 50 0 empty empty /7 4 -8 1 10 -262144 -1
-1;
#X obj 277 368 bng 15 250 50 0 empty empty /8 4 -8 1 10 -262144 -1
-1;
#X obj 172 368 bng 15 250 50 0 empty empty empty 4 -8 1 10 -262144
-1 -1;
#X obj 100 80 bng 15 250 50 0 empty empty empty 17 7 0 10 -262144 -1
-1;
#X obj 120 80 bng 15 250 50 0 empty empty empty 17 7 0 10 -262144 -1
-1;
#X msg 94 107 1;
#X msg 132 106 0;
#X obj 94 276 sel 0;
#X obj 128 276 sel 0;
#X obj 162 276 sel 0;
#X obj 196 276 sel 0;
#X obj 231 276 sel 0;
#X obj 265 276 sel 0;
#X obj 305 276 sel 0;
#X obj 9 447 outlet;
#X obj 51 447 outlet;
#X obj 99 447 outlet;
#X obj 141 447 outlet;
#X obj 189 447 outlet;
#X obj 231 447 outlet;
#X obj 279 447 outlet;
#X obj 321 447 outlet;
#X obj 346 150 loadbang;
#X msg 346 172 120;
#X connect 0 0 2 0;
#X connect 1 0 4 0;
#X connect 2 0 23 0;
#X connect 2 1 24 0;
#X connect 3 0 5 0;
#X connect 3 0 22 0;
#X connect 4 0 3 1;
#X connect 5 0 6 0;
#X connect 6 0 5 1;
#X connect 6 0 7 0;
#X connect 7 0 8 0;
#X connect 7 0 9 0;
#X connect 7 0 10 0;
#X connect 7 0 11 0;
#X connect 7 0 12 0;
#X connect 7 0 13 0;
#X connect 7 0 14 0;
#X connect 8 0 27 0;
#X connect 9 0 28 0;
#X connect 10 0 29 0;
#X connect 11 0 30 0;
#X connect 12 0 31 0;
#X connect 13 0 32 0;
#X connect 14 0 33 0;
#X connect 15 0 35 0;
#X connect 16 0 36 0;
#X connect 17 0 37 0;
#X connect 18 0 38 0;
#X connect 19 0 39 0;
#X connect 20 0 40 0;
#X connect 21 0 41 0;
#X connect 22 0 34 0;
#X connect 23 0 25 0;
#X connect 24 0 26 0;
#X connect 25 0 3 0;
#X connect 26 0 3 0;
#X connect 27 0 15 0;
#X connect 28 0 16 0;
#X connect 29 0 17 0;
#X connect 30 0 18 0;
#X connect 31 0 19 0;
#X connect 32 0 20 0;
#X connect 33 0 21 0;
#X connect 42 0 43 0;
#X connect 43 0 1 0;
#X coords 0 -1 1 1 135 60 2 164 330;
