#N canvas 0 24 1366 721 10;
#X obj 17 14 inlet;
#X obj 282 92 vsl 8 50 0 150 0 1 empty empty a 2 -9 1 10 -191407 -1
-1 0 1;
#X obj 300 92 vsl 8 50 50 1500 0 1 empty empty d 2 -9 1 10 -191407
-1 -1 4188 1;
#X obj 258 177 hsl 50 8 0 0.5 0 1 empty empty shape -2 -5 1 10 -191407
-1 -1 2906 1;
#X obj 258 155 hsl 50 8 150 1500 1 0 empty empty p -2 -5 1 10 -191407
-1 -1 3557 1;
#X obj 257 92 bng 15 100 50 0 empty empty empty 17 7 0 10 -258113 -1
-1;
#X obj 62 14 inlet;
#X obj 106 14 inlet;
#X obj 149 14 inlet;
#X obj 361 18 inlet;
#X obj 257 131 tgl 15 0 empty empty r -5 7 1 10 -258113 -1 -1 1 1;
#X obj 317 92 vsl 8 50 -1 1 0 1 empty empty p.d -2 -9 1 10 -191407
-1 -1 4397 1;
#X obj 22 404 osc~;
#X msg 100 427 0;
#X obj 128 408 spigot;
#X obj 141 449 f;
#X obj 172 435 f;
#X obj 141 494 pack;
#X msg 141 515 1 \$1 \, 0 \$2 \$1;
#X obj 141 536 vline~;
#X obj 23 522 *~;
#X obj 47 448 phasor~;
#X obj 50 476 *~;
#X obj 21 496 *~;
#X obj 60 499 expr 1 - $f1;
#X obj 42 194 f;
#X obj 138 203 f;
#X obj 72 248 expr $f2 + ($f1 * $f2);
#X obj 52 315 pack f f f f;
#X msg 52 336 \$1 0 \, \$2 \$4 \$3;
#X obj 52 357 vline~;
#X obj 26 603 outlet~;
#X obj 61 45 * 150;
#X obj 106 45 * 1500;
#X obj 157 44 expr $f1 * 2 - 1;
#X obj 417 16 inlet;
#X obj 417 37 * 0.5;
#X obj 372 606 outlet;
#X obj 333 92 vsl 8 50 0 1 0 0 empty empty n 0 -9 1 10 -191407 -1 -1
3327 1;
#X obj 350 92 vsl 8 50 0 150 0 0 empty empty na 0 -9 1 10 -191407 -1
-1 2680 1;
#X obj 367 92 vsl 8 50 50 1500 0 0 empty empty nd 0 -9 1 10 -191407
-1 -1 4069 1;
#X obj 335 248 f;
#X obj 370 253 f, f 1;
#X obj 401 257 f;
#X obj 350 318 pack f f f;
#X msg 350 339 \$1 \$2 \, 0 \$3 \$2;
#X obj 350 360 vline~;
#X obj 381 485 *~;
#X obj 266 404 noise~;
#X text 482 160 make delay/fb make rand \, same \, again;
#X obj 318 161 bng 15 250 50 0 empty empty rand -3 -5 1 10 -258113
-1 -1;
#N canvas 84 57 780 693 rand 0;
#X obj 32 109 random 2;
#X obj 93 111 random 2;
#X obj 152 109 random 2;
#X obj 212 109 random 2;
#X obj 272 109 random 2;
#X obj 332 109 random 2;
#X obj 392 109 random 2;
#X obj 452 109 random 2;
#X obj 32 130 sel 1;
#X obj 32 151 bng 15 250 50 0 empty empty empty 17 7 0 10 -262144 -1
-1;
#X obj 93 131 sel 1;
#X obj 93 152 bng 15 250 50 0 empty empty empty 17 7 0 10 -262144 -1
-1;
#X obj 164 159 sel 1;
#X obj 164 180 bng 15 250 50 0 empty empty empty 17 7 0 10 -262144
-1 -1;
#X obj 204 159 sel 1;
#X obj 204 180 bng 15 250 50 0 empty empty empty 17 7 0 10 -262144
-1 -1;
#X obj 244 159 sel 1;
#X obj 244 180 bng 15 250 50 0 empty empty empty 17 7 0 10 -262144
-1 -1;
#X obj 284 159 sel 1;
#X obj 284 180 bng 15 250 50 0 empty empty empty 17 7 0 10 -262144
-1 -1;
#X obj 324 159 sel 1;
#X obj 324 180 bng 15 250 50 0 empty empty empty 17 7 0 10 -262144
-1 -1;
#X obj 364 159 sel 1;
#X obj 364 180 bng 15 250 50 0 empty empty empty 17 7 0 10 -262144
-1 -1;
#X obj 32 171 random 1000;
#X obj 32 192 / 1000;
#X floatatom 32 213 5 0 0 0 - - -, f 5;
#X obj 82 191 random 1000;
#X obj 82 212 / 1000;
#X floatatom 82 233 5 0 0 0 - - -, f 5;
#X obj 132 211 random 1000;
#X obj 132 232 / 1000;
#X floatatom 132 253 5 0 0 0 - - -, f 5;
#X obj 182 231 random 1000;
#X obj 182 252 / 1000;
#X floatatom 182 273 5 0 0 0 - - -, f 5;
#X obj 232 251 random 1000;
#X obj 232 272 / 1000;
#X floatatom 232 293 5 0 0 0 - - -, f 5;
#X obj 282 271 random 1000;
#X obj 282 292 / 1000;
#X floatatom 282 313 5 0 0 0 - - -, f 5;
#X obj 332 291 random 1000;
#X obj 332 312 / 1000;
#X floatatom 332 333 5 0 0 0 - - -, f 5;
#X obj 382 311 random 1000;
#X obj 382 332 / 1000;
#X floatatom 382 353 5 0 0 0 - - -, f 5;
#X obj 44 70 bng 15 250 50 0 empty empty empty 17 7 0 10 -262144 -1
-1;
#X obj 73 36 loadbang;
#X obj 24 20 inlet;
#X obj 216 414 pack f f f f f f f f;
#X obj 44 580 outlet;
#X text 238 436 we basically need a switch to switch where we're storing
the list;
#X obj 201 22 inlet;
#X obj 251 513 demux 0 1;
#X obj 295 471 tgl 15 0 empty empty empty 17 7 0 10 -262144 -1 -1 1
1;
#X obj 181 514 list;
#X obj 336 552 list;
#X obj 405 54 inlet;
#X obj 131 374 f;
#X obj 161 374 f;
#X obj 191 374 f;
#X obj 221 374 f;
#X obj 251 374 f;
#X obj 281 374 f;
#X obj 311 374 f;
#X obj 341 374 f;
#X obj 39 296 t b b b b b b b b;
#X connect 0 0 8 0;
#X connect 1 0 10 0;
#X connect 2 0 12 0;
#X connect 3 0 14 0;
#X connect 4 0 16 0;
#X connect 5 0 18 0;
#X connect 6 0 20 0;
#X connect 7 0 22 0;
#X connect 8 0 9 0;
#X connect 9 0 24 0;
#X connect 10 0 11 0;
#X connect 11 0 27 0;
#X connect 12 0 13 0;
#X connect 13 0 30 0;
#X connect 14 0 15 0;
#X connect 15 0 33 0;
#X connect 16 0 17 0;
#X connect 17 0 36 0;
#X connect 18 0 19 0;
#X connect 19 0 39 0;
#X connect 20 0 21 0;
#X connect 21 0 42 0;
#X connect 22 0 23 0;
#X connect 23 0 45 0;
#X connect 24 0 25 0;
#X connect 25 0 26 0;
#X connect 26 0 60 1;
#X connect 27 0 28 0;
#X connect 28 0 29 0;
#X connect 29 0 61 1;
#X connect 30 0 31 0;
#X connect 31 0 32 0;
#X connect 32 0 62 1;
#X connect 33 0 34 0;
#X connect 34 0 35 0;
#X connect 35 0 63 1;
#X connect 36 0 37 0;
#X connect 37 0 38 0;
#X connect 38 0 64 1;
#X connect 39 0 40 0;
#X connect 40 0 41 0;
#X connect 41 0 65 1;
#X connect 42 0 43 0;
#X connect 43 0 44 0;
#X connect 44 0 66 1;
#X connect 45 0 46 0;
#X connect 46 0 47 0;
#X connect 47 0 67 1;
#X connect 48 0 0 0;
#X connect 48 0 1 0;
#X connect 48 0 2 0;
#X connect 48 0 3 0;
#X connect 48 0 4 0;
#X connect 48 0 5 0;
#X connect 48 0 6 0;
#X connect 48 0 7 0;
#X connect 48 0 56 0;
#X connect 48 0 68 0;
#X connect 49 0 48 0;
#X connect 50 0 48 0;
#X connect 51 0 55 0;
#X connect 51 0 52 0;
#X connect 54 0 57 0;
#X connect 55 0 57 1;
#X connect 55 1 58 1;
#X connect 56 0 55 1;
#X connect 57 0 52 0;
#X connect 58 0 52 0;
#X connect 59 0 58 0;
#X connect 60 0 51 0;
#X connect 61 0 51 1;
#X connect 62 0 51 2;
#X connect 63 0 51 3;
#X connect 64 0 51 4;
#X connect 65 0 51 5;
#X connect 66 0 51 6;
#X connect 67 0 51 7;
#X connect 68 0 60 0;
#X connect 68 1 61 0;
#X connect 68 2 62 0;
#X connect 68 3 63 0;
#X connect 68 4 64 0;
#X connect 68 5 65 0;
#X connect 68 6 66 0;
#X connect 68 7 67 0;
#X restore 512 230 pd rand;
#X obj 339 172 bng 15 250 50 0 empty empty same -3 -5 1 10 -258113
-1 -1;
#X obj 361 159 bng 15 250 50 0 empty empty old -3 -5 1 10 -258113 -1
-1;
#X obj 380 70 expr $f1 * 1350 + 150;
#X obj 528 270 unpack f f f f f f f f;
#X obj 202 11 inlet;
#X obj 269 43 * 150;
#X obj 255 11 inlet;
#X obj 332 45 * 1500;
#X obj 301 13 inlet;
#X obj 488 18 inlet;
#X obj 535 23 inlet;
#X obj 582 28 inlet;
#X obj 276 452 hip~ 5000;
#X obj 468 274 * 150;
#X obj 518 332 * 1500;
#X obj 528 367 expr $f1 * 2 - 1;
#X obj 541 455 * 150;
#X obj 613 325 * 1500;
#X obj 669 416 expr $f1 * 1350 + 150;
#X obj 697 329 * 0.5;
#X obj 143 376 t b b b b b b b b b;
#X obj 198 216 f;
#X obj 681 500 f;
#X obj 691 510 f;
#X obj 701 520 f;
#X connect 0 0 5 0;
#X connect 1 0 15 1;
#X connect 2 0 16 1;
#X connect 3 0 22 1;
#X connect 3 0 24 0;
#X connect 4 0 25 1;
#X connect 4 0 73 1;
#X connect 5 0 37 0;
#X connect 5 0 72 0;
#X connect 6 0 32 0;
#X connect 7 0 33 0;
#X connect 8 0 34 0;
#X connect 9 0 54 0;
#X connect 10 0 14 1;
#X connect 11 0 26 1;
#X connect 12 0 23 0;
#X connect 13 0 21 1;
#X connect 14 0 13 0;
#X connect 15 0 17 0;
#X connect 15 0 28 2;
#X connect 16 0 17 1;
#X connect 16 0 28 3;
#X connect 17 0 18 0;
#X connect 18 0 19 0;
#X connect 19 0 20 1;
#X connect 20 0 31 0;
#X connect 21 0 22 0;
#X connect 22 0 20 0;
#X connect 23 0 20 0;
#X connect 24 0 23 1;
#X connect 25 0 28 0;
#X connect 26 0 27 0;
#X connect 27 0 28 1;
#X connect 28 0 29 0;
#X connect 29 0 30 0;
#X connect 30 0 12 0;
#X connect 30 0 21 0;
#X connect 32 0 1 0;
#X connect 33 0 2 0;
#X connect 34 0 11 0;
#X connect 35 0 36 0;
#X connect 36 0 3 0;
#X connect 38 0 41 1;
#X connect 39 0 42 1;
#X connect 40 0 43 1;
#X connect 41 0 44 0;
#X connect 42 0 44 1;
#X connect 43 0 44 2;
#X connect 44 0 45 0;
#X connect 45 0 46 0;
#X connect 46 0 47 1;
#X connect 47 0 31 0;
#X connect 48 0 64 0;
#X connect 50 0 51 0;
#X connect 51 0 55 0;
#X connect 52 0 51 1;
#X connect 53 0 51 2;
#X connect 54 0 4 0;
#X connect 55 0 65 0;
#X connect 55 1 66 0;
#X connect 55 2 67 0;
#X connect 55 3 44 0;
#X connect 55 4 68 0;
#X connect 55 5 69 0;
#X connect 55 6 70 0;
#X connect 55 7 71 0;
#X connect 56 0 38 0;
#X connect 57 0 39 0;
#X connect 58 0 57 0;
#X connect 59 0 40 0;
#X connect 60 0 59 0;
#X connect 61 0 50 0;
#X connect 62 0 52 0;
#X connect 63 0 53 0;
#X connect 64 0 47 0;
#X connect 65 0 17 0;
#X connect 65 0 28 2;
#X connect 66 0 17 1;
#X connect 66 0 28 3;
#X connect 67 0 27 0;
#X connect 68 0 44 1;
#X connect 69 0 44 2;
#X connect 70 0 28 0;
#X connect 70 0 27 1;
#X connect 71 0 24 0;
#X connect 72 0 14 0;
#X connect 72 1 15 0;
#X connect 72 2 16 0;
#X connect 72 3 25 0;
#X connect 72 4 26 0;
#X connect 72 5 41 0;
#X connect 72 6 42 0;
#X connect 72 7 43 0;
#X connect 72 8 73 0;
#X connect 73 0 27 1;
#X coords 0 -1 1 1 161 120 2 250 78;
