#N canvas 490 23 651 855 10;
#X text 328 5 live granular synthesis;
#X obj 93 245 t b f;
#X floatatom 191 274 5 0 0 0 - - -, f 5;
#X obj 191 294 t b f;
#X floatatom 93 324 5 0 0 0 - - -, f 5;
#X obj 93 344 expr (pow(2 \, ($f2/12)) - 1) * (44100/$f1);
#X obj 150 365 / 44.1;
#X floatatom 150 386 5 0 0 0 - - -, f 5;
#X obj 93 415 phasor~;
#X obj 93 446 *~ -1;
#X obj 93 467 +~ 1;
#X obj 93 488 *~;
#X obj 93 509 vd~ b1;
#X obj 93 593 *~;
#X obj 93 751 *~;
#X obj 130 467 samphold~;
#X obj 108 530 sig~ 1;
#X obj 108 551 -~;
#X obj 108 572 *~ 0.5;
#X obj 154 530 cos~;
#X obj 270 459 +~ 0.5;
#X obj 270 480 wrap~;
#X obj 270 522 +~ 1;
#X obj 270 543 *~;
#X obj 270 564 vd~ b1;
#X obj 270 585 *~;
#X obj 307 501 sig~;
#X obj 307 522 samphold~;
#X obj 270 501 *~ -1;
#X obj 369 501 sig~ 1;
#X obj 369 543 *~ 0.5;
#X obj 483 441 cos~;
#X obj 369 522 -~;
#X obj 233 681 *~;
#X obj 187 703 delwrite~ b1 10000;
#X obj 124 66 vsl 8 50 0 0.99 0 0 empty empty fb 0 -9 1 10 -191407
-1 -1 4600 1;
#X obj 106 66 vsl 8 50 0 1 0 1 empty empty d/w 0 -9 1 10 -191407 -1
-1 2400 1;
#X obj 142 64 hsl 50 8 10 30000 0 0 empty empty g.size -2 -8 1 10 -191407
-1 -1 3200 1;
#X obj 142 88 hsl 50 8 -36 36 0 0 empty empty trans -2 -8 1 10 -191407
-1 -1 3600 1;
#X obj 116 643 expr 1 - $f1;
#X floatatom 116 664 5 0 0 0 - - -, f 5;
#X obj 142 714 *~;
#X obj 140 104 tgl 15 0 empty empty cloud 0 20 1 10 -258113 -1 -1 0
1;
#X obj 275 221 * 10;
#X obj 208 144 f;
#X obj 258 141 pack;
#X obj 251 77 t b f;
#X obj 283 815 outlet~;
#X obj 31 42 inlet~;
#X obj 258 162 route 0 1;
#X obj 86 17 inlet;
#X obj 130 16 inlet;
#X obj 172 7 inlet;
#X obj 172 28 * 30000;
#X obj 244 14 inlet;
#X obj 244 35 expr $f1 * 72 - 36;
#X obj 202 434 line~;
#X msg 197 410 \$1 20;
#X msg 93 365 \$1 0;
#X obj 93 386 line~;
#X connect 1 0 2 0;
#X connect 1 1 4 0;
#X connect 2 0 3 0;
#X connect 3 0 4 0;
#X connect 3 1 5 1;
#X connect 4 0 5 0;
#X connect 4 0 6 0;
#X connect 5 0 58 0;
#X connect 6 0 7 0;
#X connect 7 0 57 0;
#X connect 8 0 9 0;
#X connect 8 0 15 1;
#X connect 8 0 19 0;
#X connect 8 0 20 0;
#X connect 9 0 10 0;
#X connect 10 0 11 0;
#X connect 11 0 12 0;
#X connect 12 0 13 0;
#X connect 13 0 14 0;
#X connect 13 0 33 0;
#X connect 14 0 47 0;
#X connect 15 0 11 1;
#X connect 16 0 17 0;
#X connect 17 0 18 0;
#X connect 18 0 13 1;
#X connect 19 0 17 1;
#X connect 20 0 21 0;
#X connect 21 0 28 0;
#X connect 21 0 27 1;
#X connect 21 0 31 0;
#X connect 22 0 23 0;
#X connect 23 0 24 0;
#X connect 24 0 25 0;
#X connect 25 0 14 0;
#X connect 25 0 33 0;
#X connect 26 0 27 0;
#X connect 27 0 23 1;
#X connect 28 0 22 0;
#X connect 29 0 32 0;
#X connect 30 0 25 1;
#X connect 31 0 32 1;
#X connect 32 0 30 0;
#X connect 33 0 34 0;
#X connect 35 0 33 1;
#X connect 36 0 39 0;
#X connect 36 0 14 1;
#X connect 37 0 1 0;
#X connect 38 0 46 0;
#X connect 39 0 40 0;
#X connect 40 0 41 1;
#X connect 41 0 47 0;
#X connect 42 0 44 1;
#X connect 42 0 44 0;
#X connect 43 0 2 0;
#X connect 44 0 45 0;
#X connect 45 0 49 0;
#X connect 46 0 44 0;
#X connect 46 1 45 1;
#X connect 48 0 41 0;
#X connect 48 0 34 0;
#X connect 49 0 2 0;
#X connect 49 1 43 0;
#X connect 50 0 36 0;
#X connect 51 0 35 0;
#X connect 52 0 53 0;
#X connect 53 0 37 0;
#X connect 54 0 55 0;
#X connect 55 0 38 0;
#X connect 56 0 15 0;
#X connect 56 0 27 0;
#X connect 57 0 56 0;
#X connect 58 0 59 0;
#X connect 59 0 8 0;
#X coords 0 -1 1 1 100 85 2 100 50;
