#N canvas 781 144 450 542 10;
#X obj 17 14 inlet;
#X obj 257 92 vsl 8 50 0 150 0 1 empty empty a 2 -9 1 10 -191407 -1
-1 0 1;
#X obj 271 92 vsl 8 50 50 1500 0 1 empty empty d 2 -9 1 10 -191407
-1 -1 1000 1;
#X obj 261 177 hsl 50 8 0 0.5 0 1 empty empty shape -2 -5 1 10 -191407
-1 -1 0 1;
#X obj 261 155 hsl 50 8 50 200 1 1 empty empty p -2 -5 1 10 -191407
-1 -1 0 1;
#X obj 299 90 bng 15 100 50 0 empty empty empty 17 7 0 10 -258113 -1
-1;
#X obj 62 14 inlet;
#X obj 106 14 inlet;
#X obj 149 14 inlet;
#X obj 255 14 inlet;
#X obj 299 130 tgl 15 0 empty empty r -5 7 1 10 -258113 -1 -1 1 1;
#X obj 285 92 vsl 8 50 -1 1 0 1 empty empty p.d -2 -9 1 10 -191407
-1 -1 1800 1;
#X obj 22 304 osc~;
#X msg 95 314 0;
#X obj 128 298 spigot;
#X obj 141 363 f;
#X obj 172 362 f;
#X obj 141 384 pack;
#X msg 141 405 1 \$1 \, 0 \$2 \$1;
#X obj 141 426 vline~;
#X obj 23 422 *~;
#X obj 50 336 phasor~;
#X obj 50 366 *~;
#X obj 21 396 *~;
#X obj 54 389 expr 1 - $f1;
#X obj 143 267 t b b b b b;
#X obj 60 141 f;
#X obj 93 141 f;
#X obj 93 170 expr $f2 + ($f1 * $f2);
#X obj 52 205 pack f f f f;
#X msg 52 226 \$1 0 \, \$2 \$4 \$3;
#X obj 52 247 vline~;
#X obj 23 443 outlet~;
#X obj 61 35 * 150;
#X obj 106 35 * 1500;
#X obj 149 35 expr $f1 * 2 - 1;
#X obj 255 35 expr $f1 * 150 + 50;
#X obj 382 14 inlet;
#X obj 382 35 * 0.5;
#X obj 281 317 outlet;
#X connect 0 0 5 0;
#X connect 1 0 15 1;
#X connect 2 0 16 1;
#X connect 3 0 22 1;
#X connect 3 0 24 0;
#X connect 4 0 26 1;
#X connect 4 0 28 1;
#X connect 5 0 25 0;
#X connect 5 0 39 0;
#X connect 6 0 33 0;
#X connect 7 0 34 0;
#X connect 8 0 35 0;
#X connect 9 0 36 0;
#X connect 10 0 14 1;
#X connect 11 0 27 1;
#X connect 12 0 23 0;
#X connect 13 0 21 1;
#X connect 14 0 13 0;
#X connect 15 0 17 0;
#X connect 15 0 29 2;
#X connect 16 0 17 1;
#X connect 16 0 29 3;
#X connect 17 0 18 0;
#X connect 18 0 19 0;
#X connect 19 0 20 1;
#X connect 20 0 32 0;
#X connect 21 0 22 0;
#X connect 22 0 20 0;
#X connect 23 0 20 0;
#X connect 24 0 23 1;
#X connect 25 0 14 0;
#X connect 25 1 15 0;
#X connect 25 2 16 0;
#X connect 25 3 26 0;
#X connect 25 4 27 0;
#X connect 26 0 29 0;
#X connect 27 0 28 0;
#X connect 28 0 29 1;
#X connect 29 0 30 0;
#X connect 30 0 31 0;
#X connect 31 0 12 0;
#X connect 31 0 21 0;
#X connect 33 0 1 0;
#X connect 34 0 2 0;
#X connect 35 0 11 0;
#X connect 36 0 4 0;
#X connect 37 0 38 0;
#X connect 38 0 3 0;
#X coords 0 -1 1 1 70 120 2 250 75;
