#N canvas 443 83 584 498 10;
#X obj 407 115 vsl 8 50 0 3 0 1 empty rate rate 0 -9 1 10 -191407 -1
-1 4100 0;
#X floatatom 405 180 5 1 6 2 shape - -, f 5;
#N canvas 0 22 450 278 (subpatch) 0;
#X array \$0-wav 441 float 2 black black;
#X coords 0 1 441 -1 100 75 1;
#X restore 441 114 graph;
#X obj 121 197 osc~ 100;
#X obj 18 391 snapshot~;
#X obj 54 371 metro 10;
#X floatatom 18 457 5 0 0 0 - - -, f 5;
#X obj 104 110 bng 15 250 50 0 empty empty empty 17 7 0 10 -262144
-1 -1;
#X obj 132 112 bng 15 250 50 0 empty empty empty 17 7 0 10 -262144
-1 -1;
#X obj 153 112 bng 15 250 50 0 empty empty empty 17 7 0 10 -262144
-1 -1;
#X obj 255 192 phasor~ 100;
#X obj 255 213 *~ 2;
#X obj 255 234 -~ 1;
#X obj 157 287 phasor~ 100;
#X obj 224 308 phasor~ -100;
#X msg 292 288 0.5;
#X msg 201 260 0;
#X obj 183 352 *~ 2;
#X obj 183 373 -~ 2;
#X obj 295 363 *~ 2;
#X obj 295 384 -~ 1;
#X obj 295 342 phasor~ -100;
#X obj 173 111 bng 15 250 50 0 empty empty empty 17 7 0 10 -262144
-1 -1;
#X obj 18 477 outlet;
#X obj 315 14 inlet;
#X obj 55 347 loadbang;
#X obj 202 109 bng 15 250 50 0 empty empty empty 17 7 0 10 -262144
-1 -1;
#X obj 417 378 noise~;
#X obj 115 76 route 1 2 3 4 5;
#X obj 231 107 bng 15 250 50 0 empty empty empty 17 7 0 10 -262144
-1 -1;
#X obj 415 258 noise~;
#X obj 420 283 samphold~;
#X obj 474 250 phasor~ 500;
#X obj 18 412 + 1;
#X obj 18 433 / 2;
#X obj 315 35 * 3;
#X obj 309 120 loadbang;
#X msg 309 141 1;
#X obj 120 233 tabwrite~ \$0-wav;
#X obj 144 397 tabwrite~ \$0-wav;
#X obj 244 256 tabwrite~ \$0-wav;
#X obj 284 406 tabwrite~ \$0-wav;
#X obj 417 406 tabwrite~ \$0-wav;
#X obj 426 331 tabwrite~ \$0-wav;
#X obj 18 314 tabread4~ \$0-wav;
#X obj 14 250 phasor~;
#X obj 14 271 *~ 441;
#X connect 0 0 45 0;
#X connect 1 0 28 0;
#X connect 3 0 38 0;
#X connect 4 0 33 0;
#X connect 5 0 4 0;
#X connect 6 0 23 0;
#X connect 7 0 38 0;
#X connect 8 0 40 0;
#X connect 9 0 15 0;
#X connect 9 0 16 0;
#X connect 9 0 39 0;
#X connect 10 0 11 0;
#X connect 11 0 12 0;
#X connect 12 0 40 0;
#X connect 13 0 17 0;
#X connect 14 0 17 0;
#X connect 15 0 14 1;
#X connect 16 0 13 1;
#X connect 17 0 18 0;
#X connect 18 0 39 0;
#X connect 19 0 20 0;
#X connect 20 0 41 0;
#X connect 21 0 19 0;
#X connect 22 0 41 0;
#X connect 24 0 35 0;
#X connect 25 0 5 0;
#X connect 26 0 42 0;
#X connect 27 0 42 0;
#X connect 28 0 7 0;
#X connect 28 1 8 0;
#X connect 28 2 9 0;
#X connect 28 3 22 0;
#X connect 28 4 26 0;
#X connect 28 5 29 0;
#X connect 29 0 43 0;
#X connect 30 0 31 0;
#X connect 31 0 43 0;
#X connect 32 0 31 1;
#X connect 33 0 34 0;
#X connect 34 0 6 0;
#X connect 35 0 0 0;
#X connect 36 0 37 0;
#X connect 37 0 1 0;
#X connect 44 0 4 0;
#X connect 45 0 46 0;
#X connect 46 0 44 0;
#X coords 0 -1 1 1 150 100 2 400 100;
