#N canvas 0 24 1366 721 10;
#X obj 544 410 grain_delay;
#X obj 413 40 lfo;
#X obj 587 226 wind;
#X obj 176 306 kick;
#X obj 73 359 hat;
#X text 244 16 need to figure out how to have tabs with uniq ids;
#X obj 325 300 drum;
#X obj 717 182 super-env;
#X text 685 46 todo: make a melody sequencer make a pitch quantizer
make some utils - vca - mixer make some oscs make a chord player more
effects - spectral del spectral filter regular filters sample player
, f 35;
#X obj 17 9 clock;
#X obj 630 574 dac~;
#X obj 494 491 *~ 1;
#X obj 46 92 16step;
#X obj 716 382 *~;
#X obj 716 404 dac~;
#X connect 0 0 10 0;
#X connect 0 0 10 1;
#X connect 1 0 3 4;
#X connect 1 0 0 3;
#X connect 2 0 13 0;
#X connect 3 0 11 0;
#X connect 3 1 6 9;
#X connect 4 0 11 0;
#X connect 6 0 11 0;
#X connect 7 0 13 1;
#X connect 9 0 12 0;
#X connect 9 7 7 0;
#X connect 12 0 4 0;
#X connect 12 1 3 0;
#X connect 12 2 6 10;
#X connect 12 3 6 0;
#X connect 13 0 0 0;
#X connect 13 0 14 0;
#X connect 13 0 14 1;
