#N canvas 760 105 680 683 10;
#X obj 235 100 tgl 15 0 empty empty on -15 7 1 10 -262144 -1 -1 0 1
;
#X obj 41 334 sel 1;
#X msg 69 363 stop;
#N canvas 0 22 450 278 (subpatch) 0;
#X array scope 100 float 4;
#X coords 0 1 99 -1 150 120 1 0 0;
#X restore 100 115 graph;
#X obj 13 433 tabwrite~ scope;
#X obj 37 401 metro 10;
#X obj 22 25 inlet~;
#X connect 0 0 1 0;
#X connect 1 0 5 0;
#X connect 1 1 2 0;
#X connect 2 0 5 0;
#X connect 5 0 4 0;
#X connect 6 0 4 0;
#X coords 0 -1 1 1 150 135 1 100 100;
