#N canvas 683 52 683 693 10;
#X obj 446 179 hsl 100 8 0 100 0 1 empty empty att -2 -8 1 10 -262144
-1 -1 3600 1;
#X text 372 89 attack max: 10000 decay max: 10000 release: 10000;
#X obj 219 225 *;
#X floatatom 219 246 5 0 0 0 - - -, f 5;
#X obj 446 200 hsl 100 8 0 100 0 1 empty empty dec -2 -8 1 10 -262144
-1 -1 0 1;
#X obj 259 285 *;
#X floatatom 259 307 5 0 0 0 - - -, f 5;
#X obj 446 241 hsl 100 8 0 100 0 1 empty empty rel -2 -8 0 10 -262144
-1 -1 9900 1;
#X obj 289 395 *;
#X floatatom 289 416 5 0 0 0 - - -, f 5;
#X obj 446 220 hsl 100 8 0 1 0 1 empty empty sus -2 -8 0 10 -262144
-1 -1 9900 1;
#X floatatom 279 355 5 0 0 0 - - -, f 5;
#X obj 126 269 f;
#X obj 154 303 f;
#X obj 188 335 f;
#X obj 241 434 f;
#X obj 45 149 demux 1 2;
#X obj 18 55 inlet;
#X obj 42 385 f;
#X obj 66 427 f;
#X obj 101 182 sel 1;
#X obj 133 449 pack f f f;
#X obj 103 579 vline~;
#X obj 57 619 outlet~;
#X obj 189 661 outlet;
#X obj 136 606 unsig~ 10;
#X floatatom 142 633 5 0 0 0 - - -, f 5;
#X obj 535 171 hradio 8 0 0 2 empty empty empty 0 -8 0 10 -262144 -1
-1 1;
#X obj 96 434 f;
#X obj 38 464 pack f f f;
#X msg 39 490 \$3 \$1 \, 0 \$2 \$1;
#X obj 59 90 tgl 13 0 empty empty empty 17 7 0 10 -262144 -1 -1 0 1
;
#X msg 118 524 1 \$1 \, \$3 \$2 \$1;
#X msg 209 476 0 \$1;
#X floatatom 241 456 5 0 0 0 - - -, f 5;
#X obj 223 404 bng 15 250 50 0 empty empty empty 17 7 0 10 -262144
-1 -1;
#X connect 0 0 2 0;
#X connect 0 0 2 1;
#X connect 2 0 3 0;
#X connect 3 0 12 1;
#X connect 3 0 18 1;
#X connect 4 0 5 0;
#X connect 4 0 5 1;
#X connect 5 0 6 0;
#X connect 6 0 13 1;
#X connect 6 0 19 1;
#X connect 7 0 8 0;
#X connect 7 0 8 1;
#X connect 8 0 9 0;
#X connect 9 0 15 1;
#X connect 10 0 11 0;
#X connect 11 0 14 1;
#X connect 11 0 28 1;
#X connect 12 0 21 0;
#X connect 13 0 21 1;
#X connect 14 0 21 2;
#X connect 15 0 34 0;
#X connect 16 0 18 0;
#X connect 16 0 19 0;
#X connect 16 0 28 0;
#X connect 16 1 20 0;
#X connect 17 0 16 0;
#X connect 18 0 29 0;
#X connect 19 0 29 1;
#X connect 20 0 12 0;
#X connect 20 0 13 0;
#X connect 20 0 14 0;
#X connect 20 1 35 0;
#X connect 21 0 32 0;
#X connect 22 0 23 0;
#X connect 22 0 25 0;
#X connect 25 0 26 0;
#X connect 26 0 24 0;
#X connect 27 0 16 1;
#X connect 28 0 29 2;
#X connect 29 0 30 0;
#X connect 30 0 22 0;
#X connect 31 0 16 0;
#X connect 32 0 22 0;
#X connect 33 0 22 0;
#X connect 34 0 33 0;
#X connect 35 0 15 0;
#X coords 0 -1 1 1 120 100 2 439 162;
